<svg width="19" height="20" viewBox="0 0 19 20" fill="none" xmlns="http://www.w3.org/2000/svg">
<path d="M5.34807 4.18605C4.96667 4.18605 4.65039 3.86977 4.65039 3.48837V0.697674C4.65039 0.316279 4.96667 0 5.34807 0C5.72946 0 6.04574 0.316279 6.04574 0.697674V3.48837C6.04574 3.86977 5.72946 4.18605 5.34807 4.18605Z" fill="#253017"/>
<path d="M12.7914 4.18605C12.41 4.18605 12.0938 3.86977 12.0938 3.48837V0.697674C12.0938 0.316279 12.41 0 12.7914 0C13.1728 0 13.4891 0.316279 13.4891 0.697674V3.48837C13.4891 3.86977 13.1728 4.18605 12.7914 4.18605Z" fill="#253017"/>
<path d="M5.81305 12.326C5.69211 12.326 5.57118 12.2981 5.45956 12.2516C5.33863 12.2051 5.2456 12.14 5.15258 12.0562C4.98514 11.8795 4.88281 11.6469 4.88281 11.3958C4.88281 11.2748 4.91072 11.1539 4.95723 11.0423C5.00374 10.9307 5.06886 10.8283 5.15258 10.7353C5.2456 10.6516 5.33863 10.5865 5.45956 10.5399C5.79444 10.4004 6.21304 10.4749 6.47351 10.7353C6.64095 10.9121 6.74328 11.1539 6.74328 11.3958C6.74328 11.4516 6.73397 11.5167 6.72467 11.5818C6.71537 11.6376 6.69676 11.6935 6.66886 11.7493C6.65025 11.8051 6.62235 11.8609 6.58514 11.9167C6.55723 11.9632 6.51072 12.0097 6.47351 12.0562C6.29677 12.2237 6.05491 12.326 5.81305 12.326Z" fill="#253017"/>
<path d="M9.0689 12.3262C8.94797 12.3262 8.82704 12.2983 8.71542 12.2518C8.59448 12.2053 8.50146 12.1402 8.40844 12.0565C8.241 11.8797 8.13867 11.6472 8.13867 11.396C8.13867 11.2751 8.16658 11.1541 8.21309 11.0425C8.2596 10.9309 8.32472 10.8286 8.40844 10.7355C8.50146 10.6518 8.59448 10.5867 8.71542 10.5402C9.0503 10.3913 9.4689 10.4751 9.72937 10.7355C9.89681 10.9123 9.99914 11.1541 9.99914 11.396C9.99914 11.4518 9.98983 11.5169 9.98053 11.5821C9.97123 11.6379 9.95262 11.6937 9.92472 11.7495C9.90611 11.8053 9.87821 11.8611 9.841 11.9169C9.81309 11.9634 9.76658 12.0099 9.72937 12.0565C9.55262 12.2239 9.31076 12.3262 9.0689 12.3262Z" fill="#253017"/>
<path d="M12.3248 12.3262C12.2038 12.3262 12.0829 12.2983 11.9713 12.2518C11.8503 12.2053 11.7573 12.1402 11.6643 12.0565C11.6271 12.0099 11.5899 11.9634 11.5527 11.9169C11.5155 11.8611 11.4876 11.8053 11.469 11.7495C11.441 11.6937 11.4224 11.6379 11.4131 11.5821C11.4038 11.5169 11.3945 11.4518 11.3945 11.396C11.3945 11.1541 11.4969 10.9123 11.6643 10.7355C11.7573 10.6518 11.8503 10.5867 11.9713 10.5402C12.3155 10.3913 12.7248 10.4751 12.9852 10.7355C13.1527 10.9123 13.255 11.1541 13.255 11.396C13.255 11.4518 13.2457 11.5169 13.2364 11.5821C13.2271 11.6379 13.2085 11.6937 13.1806 11.7495C13.162 11.8053 13.1341 11.8611 13.0969 11.9169C13.069 11.9634 13.0224 12.0099 12.9852 12.0565C12.8085 12.2239 12.5666 12.3262 12.3248 12.3262Z" fill="#253017"/>
<path d="M5.81305 15.5813C5.69211 15.5813 5.57118 15.5534 5.45956 15.5068C5.34793 15.4603 5.2456 15.3952 5.15258 15.3115C4.98514 15.1347 4.88281 14.8929 4.88281 14.651C4.88281 14.5301 4.91072 14.4092 4.95723 14.2975C5.00374 14.1766 5.06886 14.0743 5.15258 13.9906C5.49677 13.6464 6.12932 13.6464 6.47351 13.9906C6.64095 14.1673 6.74328 14.4092 6.74328 14.651C6.74328 14.8929 6.64095 15.1347 6.47351 15.3115C6.29677 15.4789 6.05491 15.5813 5.81305 15.5813Z" fill="#253017"/>
<path d="M9.0689 15.5813C8.82704 15.5813 8.58518 15.4789 8.40844 15.3115C8.241 15.1347 8.13867 14.8929 8.13867 14.651C8.13867 14.5301 8.16658 14.4092 8.21309 14.2975C8.2596 14.1766 8.32472 14.0743 8.40844 13.9906C8.75263 13.6464 9.38518 13.6464 9.72937 13.9906C9.81309 14.0743 9.87821 14.1766 9.92472 14.2975C9.97123 14.4092 9.99914 14.5301 9.99914 14.651C9.99914 14.8929 9.89681 15.1347 9.72937 15.3115C9.55262 15.4789 9.31076 15.5813 9.0689 15.5813Z" fill="#253017"/>
<path d="M12.3248 15.582C12.0829 15.582 11.841 15.4797 11.6643 15.3122C11.5806 15.2285 11.5155 15.1262 11.469 15.0053C11.4224 14.8936 11.3945 14.7727 11.3945 14.6518C11.3945 14.5308 11.4224 14.4099 11.469 14.2983C11.5155 14.1773 11.5806 14.075 11.6643 13.9913C11.8783 13.7774 12.2038 13.675 12.5015 13.7401C12.5666 13.7494 12.6224 13.768 12.6783 13.7959C12.7341 13.8145 12.7899 13.8425 12.8457 13.8797C12.8922 13.9076 12.9387 13.9541 12.9852 13.9913C13.1527 14.1681 13.255 14.4099 13.255 14.6518C13.255 14.8936 13.1527 15.1355 12.9852 15.3122C12.8085 15.4797 12.5666 15.582 12.3248 15.582Z" fill="#253017"/>
<path d="M16.9765 7.99105H1.16252C0.781123 7.99105 0.464844 7.67477 0.464844 7.29338C0.464844 6.91198 0.781123 6.5957 1.16252 6.5957H16.9765C17.3579 6.5957 17.6741 6.91198 17.6741 7.29338C17.6741 7.67477 17.3579 7.99105 16.9765 7.99105Z" fill="#253017"/>
<path d="M12.7907 19.9992H5.34884C1.95349 19.9992 0 18.0457 0 14.6503V6.74337C0 3.34802 1.95349 1.39453 5.34884 1.39453H12.7907C16.186 1.39453 18.1395 3.34802 18.1395 6.74337V14.6503C18.1395 18.0457 16.186 19.9992 12.7907 19.9992ZM5.34884 2.78988C2.68837 2.78988 1.39535 4.0829 1.39535 6.74337V14.6503C1.39535 17.3108 2.68837 18.6038 5.34884 18.6038H12.7907C15.4512 18.6038 16.7442 17.3108 16.7442 14.6503V6.74337C16.7442 4.0829 15.4512 2.78988 12.7907 2.78988H5.34884Z" fill="#253017"/>
</svg>
